<svg xmlns="http://www.w3.org/2000/svg" class="logo__svg" viewBox="0 0 35.977 8.132"><path id="text" d="M6.033 1.757q.91 0 1.418.55.518.55.518 1.482V7.62H6.858V4.053q0-.603-.317-.952-.318-.35-.837-.35-.497 0-.836.34-.328.338-.328.952V7.62h-1.1V4.085q0-.624-.318-.974-.307-.36-.847-.36-.518 0-.836.36-.317.35-.317.932V7.62H0V1.905h.984v.614q.286-.36.71-.561.433-.201.93-.201.583 0 1.006.243.434.244.656.688.265-.434.72-.677.466-.254 1.027-.254zM10.867 2.233q.244-.18.55-.265.307-.095.625-.095.2 0 .391.032v1.037q-.211-.053-.423-.053-.476 0-.815.233-.73.455-.73 1.609V7.62H9.354V1.905h.984v.91q.233-.391.53-.582zM18.307 0v7.62h-.985v-.53q-.656.689-1.714.689-.773 0-1.365-.392-.582-.391-.9-1.08-.317-.687-.317-1.545 0-.857.317-1.545.318-.688.91-1.08.593-.39 1.376-.39.92 0 1.556.55V0zm-2.54 6.773q.783 0 1.164-.54.391-.54.391-1.47 0-.932-.38-1.472-.382-.54-1.144-.54-.783 0-1.195.562-.403.56-.403 1.45 0 .888.403 1.45.402.56 1.164.56zM27.808 5.313v.35q0 .253.021.412.032.159.095.264.233.403.91.403.318 0 .678-.064v.942q-.455.095-.91.095-.593 0-1.038-.19-.433-.19-.656-.603-.127-.244-.169-.487-.032-.254-.032-.604V2.794h-1.1v-.889h1.1V.318h1.1v1.587h1.705v.889h-1.704zM33.373 1.746q.784 0 1.376.392.593.391.91 1.08.318.687.318 1.544 0 .858-.318 1.546-.317.688-.91 1.08-.582.39-1.354.39-1.059 0-1.715-.687v.529h-.984V0h1.122v2.297q.635-.55 1.555-.55zm-.137 5.027q.762 0 1.164-.56.402-.562.402-1.45 0-.89-.413-1.45-.402-.561-1.185-.561-.762 0-1.143.54-.38.54-.38 1.47 0 .932.38 1.472.392.54 1.175.54z" fill="#fff"/><path d="M24.652 2.438l.919 2.37-1.026 2.325-2.37.919-2.326-1.026-.918-2.37 1.026-2.325 2.37-.92z" fill="none" stroke="#c29948" stroke-width=".149"/><path d="M24.111 2.997l.712 1.835-.795 1.8-1.834.712-1.8-.795-.712-1.834.794-1.8 1.835-.712z" fill="none" stroke="#c29948" stroke-width=".115"/></svg>
