<svg xmlns="http://www.w3.org/2000/svg" xmlns:xlink="http://www.w3.org/1999/xlink" xml:space="preserve" viewBox="0 0 73.782 73.782"><defs><path id="a" d="M238.65 47.627c0 6.449 7.84 5.572 7.84 5.572v-25.43c0-7.413-7.84-11.873-7.84-11.873z"/></defs><defs><path id="b" d="M172.73 47.627c0 6.449 7.839 5.572 7.839 5.572v-25.43c0-7.413-7.839-11.873-7.839-11.873z"/></defs><defs><path id="c" d="M220.6 14.408c-1.479 1.479-2.219 3.714-2.219 6.708v3.827h-4.889v6.446h4.889v21.396h7.839V31.39s7.334.436 8.884-6v-.396h-8.985v-3.158c0-1.993.944-2.992 2.835-2.992.688 0 .838.04 1.858.182s4.466.839 5.943-4.016c0 0-1.466-1.05-4.24-1.993-.72-.244-1.523-.43-2.398-.568-.878-.135-1.936-.206-3.173-.206-2.783-.001-4.899.723-6.344 2.165"/></defs><defs><path id="d" d="M184.7 24.225v21.929c0 6.176 7.488 7.043 8.694 7.043h.059s5.084.783 8.732-4.445v4.033h7.838v-27.76h-7.838v15.422c0 1.855-.442 3.258-1.316 4.203-.878.947-2.073 1.418-3.585 1.418-1.513 0-2.683-.471-3.508-1.418-.151-.174-.273-.377-.396-.58-.552-.908-.853-2.107-.853-3.623V30.176c0-5.477-5.681-5.967-7.389-5.967a4.838 4.838 0 0 0-.438.016"/></defs><defs><path id="e" d="M293.62 25.217c-1.729 1.085-2.763 2.991-3.554 4.884l-.002.076c0-6.175-7.217-6.011-7.827-5.951v23.4c0 6.174 7.225 5.635 7.836 5.578v-11.24c0-3.334.739-5.795 2.238-7.376.976-1.035 2.197-1.731 3.656-2.089.768-.189 7.073-1.692 6.27-8.997-.513-.021-1.069-.044-1.657-.044-2.095-.001-4.592.274-6.96 1.759"/></defs><defs><path id="f" d="M147.11 38.879c0-4.286 3.487-7.769 7.771-7.769 4.287 0 7.773 3.483 7.773 7.769 0 4.287-3.486 7.773-7.773 7.773-4.284.001-7.771-3.485-7.771-7.773m-6.67 0c0 7.977 6.465 14.443 14.44 14.443 7.979 0 14.443-6.467 14.443-14.443 0-7.974-6.465-14.441-14.443-14.441-7.975 0-14.44 6.467-14.44 14.441"/></defs><defs><path id="g" d="M83.643 38.879c0 7.977 6.465 14.443 14.441 14.443 4.425 0 8.427-2.035 11.078-5.166-3.172-4.674-6.795-1.996-9.154-1.723 0 0-.905.225-1.924.219-4.284 0-7.77-3.486-7.77-7.773 0-4.286 3.486-7.769 7.77-7.769 3.505 0 6.475 2.33 7.442 5.521h-4.737c-5.196 0-6.154 4.902-6.154 4.902h16.016c1.806 0 1.874-2.654 1.874-2.654 0-7.974-6.465-14.441-14.441-14.441-7.976 0-14.441 6.467-14.441 14.441"/></defs><defs><path id="h" d="M256.38 38.879c0-4.286 3.486-7.769 7.771-7.769 4.288 0 7.771 3.483 7.771 7.769 0 4.287-3.483 7.773-7.771 7.773-4.284.001-7.771-3.485-7.771-7.773m-6.67 0c0 7.977 6.464 14.443 14.442 14.443 7.977 0 14.44-6.467 14.44-14.443 0-7.974-6.464-14.441-14.44-14.441-7.979 0-14.442 6.467-14.442 14.441"/></defs><defs><path id="i" d="M134.28 26.723c-1.927 1.494-2.708 3.931-2.708 3.931l-8.849 22.556c.209.016 4.934.348 7.461-1.611 1.927-1.496 2.707-3.932 2.707-3.932l8.827-22.513.027-.041h-.011l.011-.031-.019.03c-.055-.004-.426-.031-.989-.031-1.561-.001-4.6.202-6.457 1.642"/></defs><defs><path id="j" d="m111.73 25.111-.022-.029.013.03h-.013l.031.041 10.986 28.056 5.765-6.104-6.609-16.453s-.778-2.437-2.704-3.931c-1.86-1.44-4.898-1.643-6.459-1.643-.561.002-.932.029-.988.033"/></defs><defs><path id="k" d="M44.446 0c-1.623.002-3.622.918-5.936 2.32-6.139 3.72-7.344 8.981-7.344 8.981-1.245 3.211 1.775 8.902 1.775 8.902l8.165 14.406c18.827-18.052 7.379-23.734 7.379-23.734s-3.534-2.059-2.153-5.952C47.712 1.03 46.29.515 46.29.515 45.748.162 45.135.001 44.456 0Z"/></defs><clipPath id="l"><use overflow="visible" xlink:href="#k" style="overflow:visible" width="100%" height="100%"/></clipPath><linearGradient id="m" x1="-142" x2="-141" y1="444.8" y2="444.8" gradientTransform="rotate(-26.781 -18986.603 -1498.382) scale(18.9518)" gradientUnits="userSpaceOnUse"><stop stop-color="#19518E" offset="0"/><stop stop-color="#1A6EAA" offset=".471"/><stop stop-color="#208FBF" offset=".999"/><stop stop-color="#208FBF" offset="1"/></linearGradient><path clip-path="url(#l)" style="fill:url(#m)" d="m36.014 46.682 37.84-19.098L53.84-12.072 15.999 7.026z"/><defs><path id="n" d="M53.797 15.873c-3.286 1.029-5.853 6.938-5.853 6.938l-6.173 15.365c25.853 3.467 23.157-9.028 23.157-9.028s-.593-4.047 3.312-5.396c3.904-1.347 3.421-2.78 3.421-2.78-.213-2.188-2.657-3.631-6.263-4.958-2.333-.859-4.442-1.141-6.202-1.141-3.321.001-5.399 1-5.399 1"/></defs><clipPath id="o"><use overflow="visible" xlink:href="#n" style="overflow:visible" width="100%" height="100%"/></clipPath><linearGradient id="p" x1="-154.91" x2="-153.91" y1="444.1" y2="444.1" gradientTransform="matrix(17.225 7.9039 -7.9039 17.225 6225.9 -6401.5)" gradientUnits="userSpaceOnUse"><stop stop-color="#5D8F3F" offset="0"/><stop stop-color="#73B442" offset=".472"/><stop stop-color="#C5D12E" offset="1"/><stop stop-color="#C5D12E" offset="1"/></linearGradient><path clip-path="url(#o)" style="fill:url(#p)" d="m31.625 36.986 35.236 16.169L82.29 19.53 47.054 3.361z"/><defs><path id="q" d="m55.273 36.163-15.861 4.753C52.821 63.29 60.908 53.393 60.908 53.393s2.795-2.986 6.282-.775c3.489 2.213 4.309.941 4.309.941.728-.705 1.035-1.682 1.037-2.887v-.021c-.002-1.408-.417-3.123-1.066-5.078-2.26-6.814-7.123-9.159-7.123-9.159-1.041-.703-2.532-.927-4.003-.927-2.562 0-5.071.676-5.071.676"/></defs><clipPath id="r"><use overflow="visible" xlink:href="#q" style="overflow:visible" width="100%" height="100%"/></clipPath><linearGradient id="s" x1="-163.5" x2="-162.5" y1="453.76" y2="453.76" gradientTransform="matrix(4.5603 18.395 -18.395 4.5603 9145.4 975.19)" gradientUnits="userSpaceOnUse"><stop stop-color="#CC8528" offset="0"/><stop stop-color="#F2AD1A" offset=".473"/><stop stop-color="#F6DB14" offset=".999"/><stop stop-color="#F6DB14" offset="1"/></linearGradient><path clip-path="url(#r)" style="fill:url(#s)" d="m32.918 37.097 8.412 33.929 37.699-9.346-8.411-33.929z"/><defs><path id="t" d="M39.433 65.374s4.078.324 4.523 4.428c.444 4.107 1.951 3.955 1.951 3.955 2.181.279 4.129-1.781 6.226-5.002 3.917-6.014 2.719-11.277 2.719-11.277-.271-3.434-5.461-7.252-5.461-7.252L35.784 40.79c-9.131 24.431 3.649 24.584 3.649 24.584"/></defs><clipPath id="u"><use overflow="visible" xlink:href="#t" style="overflow:visible" width="100%" height="100%"/></clipPath><linearGradient id="v" x1="-161.31" x2="-160.31" y1="466.49" y2="466.49" gradientTransform="matrix(-11.539 15.035 -15.035 -11.539 5200 7857)" gradientUnits="userSpaceOnUse"><stop stop-color="#CD5D28" offset="0"/><stop stop-color="#EA7322" offset=".472"/><stop stop-color="#F09A20" offset=".999"/><stop stop-color="#F09A20" offset="1"/></linearGradient><path clip-path="url(#u)" style="fill:url(#v)" d="m37.55 26.591-26.955 35.12 34.558 26.524 26.954-35.121z"/><defs><path id="w" d="M16.693 56.036s2.29 3.387-.644 6.295c-2.933 2.91-1.875 3.992-1.875 3.992 1.141 1.879 3.968 2.117 7.793 1.75 7.145-.689 10.514-4.908 10.514-4.908 2.514-2.352 2.263-8.791 2.263-8.791l-1.106-16.52C8.843 45.948 16.693 56.036 16.693 56.036"/></defs><clipPath id="x"><use overflow="visible" xlink:href="#w" style="overflow:visible" width="100%" height="100%"/></clipPath><linearGradient id="y" x1="-149.98" x2="-148.98" y1="472.72" y2="472.72" gradientTransform="rotate(178.931 -1362.46 4519.37) scale(18.9523)" gradientUnits="userSpaceOnUse"><stop stop-color="#C22D55" offset="0"/><stop stop-color="#E75178" offset=".471"/><stop stop-color="#E97988" offset=".998"/><stop stop-color="#E97988" offset="1"/></linearGradient><path clip-path="url(#x)" style="fill:url(#y)" d="m34.986 37.367-26.712.497.578 31.062 26.712-.496z"/><defs><path id="z" d="M9.782 32.467s-1.207 3.907-5.311 3.445C.367 35.448.185 36.951.185 36.951A3.091 3.091 0 0 0 0 38.002v.025c.007 1.799 1.478 3.809 3.705 6.092 5.013 5.139 10.412 5.121 10.412 5.121 3.408.484 8.269-3.744 8.269-3.744L34.57 34.282c-7.957-5.192-13.407-6.842-17.119-6.842-6.479 0-7.669 5.027-7.669 5.027"/></defs><clipPath id="A"><use overflow="visible" xlink:href="#z" style="overflow:visible" width="100%" height="100%"/></clipPath><linearGradient id="B" x1="-138.09" x2="-137.09" y1="467.8" y2="467.8" gradientTransform="scale(-18.952) rotate(50.135 432.943 379.043)" gradientUnits="userSpaceOnUse"><stop stop-color="#BE1C26" offset="0"/><stop stop-color="#E34224" offset=".472"/><stop stop-color="#EA7322" offset="1"/></linearGradient><path clip-path="url(#A)" style="fill:url(#B)" d="M45.534 40.569 20.367 10.433l-31.331 26.163 25.166 30.137z"/><defs><path id="C" d="M14.477 7.593c-2.086.695-2.947 3.398-3.44 7.209-.919 7.118 2.445 11.342 2.445 11.342 1.733 2.975 8.067 4.163 8.067 4.163l16.353 2.599c-.014-.152.03-.326-.049-.464-7.389-12.9-7.109-19.081-7.109-19.081a.61.61 0 0 0-.067-.054c-3.434-2.508-6.73-.968-6.73-.968s-3.813 1.478-5.997-2.028c-1.505-2.418-2.585-2.793-3.112-2.793-.237 0-.361.075-.361.075"/></defs><clipPath id="D"><use overflow="visible" xlink:href="#C" style="overflow:visible" width="100%" height="100%"/></clipPath><linearGradient id="E" x1="-134.5" x2="-133.5" y1="455.32" y2="455.32" gradientTransform="rotate(-78.209 -6553.306 2748.348) scale(18.9519)" gradientUnits="userSpaceOnUse"><stop stop-color="#70266F" offset="0"/><stop stop-color="#802880" offset=".47"/><stop stop-color="#A4217E" offset=".999"/><stop stop-color="#A4217E" offset="1"/></linearGradient><path clip-path="url(#D)" style="fill:url(#E)" d="M36.771 38.469 43.01 8.577 11.279 1.953 5.04 31.845z"/><defs><path id="F" d="M42.889 20.18c-3.213 1.108-3.898 2.673-4.369 3.888L33.727 35.95a4.175 4.175 0 0 0 2.909 5.137c2.221.613 4.493-.77 5.135-2.91l6.173-15.365s2.297-5.289 5.328-6.73zm10.383-4.099.525-.208a4.09 4.09 0 0 0-.525.208"/></defs><clipPath id="G"><use overflow="visible" xlink:href="#F" style="overflow:visible" width="100%" height="100%"/></clipPath><linearGradient id="H" x1="-136.66" x2="-135.66" y1="463.05" y2="463.05" gradientTransform="matrix(-7.3022 -19.504 19.504 -7.3022 -9982.2 754.6)" gradientUnits="userSpaceOnUse"><stop stop-color="#73B442" offset="0"/><stop stop-color="#73B442" offset=".446"/><stop stop-color="#ADC935" offset=".752"/><stop stop-color="#A7C736" offset=".762"/><stop stop-color="#6AB342" offset=".874"/><stop stop-color="#52AB47" offset=".928"/><stop stop-color="#52AB47" offset="1"/></linearGradient><path clip-path="url(#G)" style="fill:url(#H)" d="M62.277 38.526 51.254 9.081l-26.623 9.968 11.024 29.444z"/><defs><path id="I" d="M27.732 22.516c-1.136 3.202-.342 4.715.315 5.84l6.302 11.157a4.178 4.178 0 0 0 5.829.928c1.865-1.354 2.2-3.993.928-5.83l-8.165-14.406S30.239 15.111 31 11.843zM31 11.842l.166-.54a4.175 4.175 0 0 0-.166.54"/></defs><clipPath id="J"><use overflow="visible" xlink:href="#I" style="overflow:visible" width="100%" height="100%"/></clipPath><linearGradient id="K" x1="-145.44" x2="-144.44" y1="470.88" y2="470.88" gradientTransform="rotate(-161.954 -2268.142 4674.28) scale(20.8265)" gradientUnits="userSpaceOnUse"><stop stop-color="#1C61A2" offset="0"/><stop stop-color="#1C61A2" offset=".445"/><stop stop-color="#1F99C4" offset=".73"/><stop stop-color="#1A70AC" offset=".856"/><stop stop-color="#175DA1" offset=".926"/><stop stop-color="#175DA1" offset="1"/></linearGradient><path clip-path="url(#J)" style="fill:url(#K)" d="M51.358 14.229 28.11 6.653 17.615 38.866l23.248 7.574z"/><defs><path id="L" d="M20.108 35.821c1.795 2.884 3.473 3.205 4.762 3.394l12.651 2.027a4.173 4.173 0 0 0 4.359-3.978c.106-2.303-1.749-4.209-3.978-4.359l-16.353-2.599s-5.669-1.063-7.748-3.696zm-6.626-9.677c.093.161.201.316.319.467z"/></defs><clipPath id="M"><use overflow="visible" xlink:href="#L" style="overflow:visible" width="100%" height="100%"/></clipPath><linearGradient id="N" x1="-157.03" x2="-156.03" y1="468.9" y2="468.9" gradientTransform="rotate(146.617 -156.623 5392.342) scale(20.826)" gradientUnits="userSpaceOnUse"><stop stop-color="#92247F" offset="0"/><stop stop-color="#92247F" offset=".445"/><stop stop-color="#A7418D" offset=".749"/><stop stop-color="#963687" offset=".818"/><stop stop-color="#802880" offset=".926"/><stop stop-color="#802880" offset="1"/></linearGradient><path clip-path="url(#M)" style="fill:url(#N)" d="M33.356 13.047 6.496 30.746l15.615 23.698 26.861-17.699z"/><defs><path id="O" d="m14.631 49.272-.563-.041c.183.027.371.041.563.041M34.58 34.354 22.352 45.52s-4.365 3.768-7.721 3.752l11.133.812c3.375.395 4.672-.717 5.623-1.607l9.474-8.625a4.175 4.175 0 0 0-.393-5.891 4.075 4.075 0 0 0-2.701-1.003 4.33 4.33 0 0 0-3.187 1.396"/></defs><clipPath id="P"><use overflow="visible" xlink:href="#O" style="overflow:visible" width="100%" height="100%"/></clipPath><linearGradient id="Q" x1="-162.71" x2="-161.71" y1="458.6" y2="458.6" gradientTransform="matrix(-1.8835 20.741 -20.741 -1.8835 9234.5 4270)" gradientUnits="userSpaceOnUse"><stop stop-color="#E34224" offset="0"/><stop stop-color="#E34224" offset=".445"/><stop stop-color="#EA7322" offset=".75"/><stop stop-color="#E23926" offset=".865"/><stop stop-color="#DE2026" offset=".926"/><stop stop-color="#DE2026" offset="1"/></linearGradient><path clip-path="url(#P)" style="fill:url(#Q)" d="M14.299 30.408 12.49 50.334l29.657 2.694 1.81-19.926z"/><defs><path id="R" d="M32.481 63.165a4.01 4.01 0 0 0 .383-.416zm5.268-30.227c-.245 0-.495.021-.746.066-2.268.409-3.714 2.643-3.365 4.85l1.106 16.52s.225 5.764-1.88 8.375l7.576-8.197c2.413-2.393 2.353-4.098 2.25-5.396l-.837-12.786a4.175 4.175 0 0 0-4.102-3.432h-.002"/></defs><clipPath id="S"><use overflow="visible" xlink:href="#R" style="overflow:visible" width="100%" height="100%"/></clipPath><linearGradient id="T" x1="-158.2" x2="-157.2" y1="447.73" y2="447.73" gradientTransform="scale(20.826) rotate(43.759 476.684 423.514)" gradientUnits="userSpaceOnUse"><stop stop-color="#E74274" offset="0"/><stop stop-color="#E74274" offset=".444"/><stop stop-color="#ED9AA7" offset=".75"/><stop stop-color="#E96987" offset=".859"/><stop stop-color="#E75178" offset=".925"/><stop stop-color="#E75178" offset="1"/></linearGradient><path clip-path="url(#S)" style="fill:url(#T)" d="m17.381 48.706 20.51 19.64 20.061-20.949-20.51-19.641z"/><defs><path id="U" d="M54.852 57.477a3.882 3.882 0 0 0-.085-.561ZM34.091 35.134c-1.094 2.029-.25 4.552 1.693 5.656l13.607 9.436s4.645 3.418 5.376 6.691l-1.685-11.033c-.367-3.379-1.738-4.395-2.819-5.125l-10.517-7.316a4.169 4.169 0 0 0-5.655 1.691"/></defs><clipPath id="V"><use overflow="visible" xlink:href="#U" style="overflow:visible" width="100%" height="100%"/></clipPath><linearGradient id="W" x1="-146.9" x2="-145.9" y1="444.49" y2="444.49" gradientTransform="matrix(20.64 -2.779 2.779 20.64 1830.8 -9536)" gradientUnits="userSpaceOnUse"><stop stop-color="#EA7322" offset="0"/><stop stop-color="#EA7322" offset=".446"/><stop stop-color="#F09A20" offset=".751"/><stop stop-color="#EA7523" offset=".848"/><stop stop-color="#E65C23" offset=".926"/><stop stop-color="#E65C23" offset="1"/></linearGradient><path clip-path="url(#V)" style="fill:url(#W)" d="m33.386 60.366 24.71-3.326-3.634-26.989-24.71 3.327z"/><defs><path id="X" d="M64.347 36.414a4.191 4.191 0 0 0-.49-.282Zm-15.932-6.836-12.278 3.661a4.174 4.174 0 0 0-2.201 5.476c.904 2.121 3.402 3.035 5.476 2.201l15.861-4.753s5.569-1.502 8.584-.031L54.18 30.57c-1.629-1.032-2.865-1.338-3.857-1.338-.756 0-1.369.178-1.908.346"/></defs><clipPath id="Y"><use overflow="visible" xlink:href="#X" style="overflow:visible" width="100%" height="100%"/></clipPath><linearGradient id="Z" x1="-137.31" x2="-136.31" y1="451.31" y2="451.31" gradientTransform="matrix(10.696 -17.87 17.87 10.696 -6553.5 -7235.2)" gradientUnits="userSpaceOnUse"><stop stop-color="#F4C014" offset="0"/><stop stop-color="#F4C014" offset=".447"/><stop stop-color="#F6DB14" offset=".753"/><stop stop-color="#F4C616" offset=".825"/><stop stop-color="#F2AD1A" offset=".928"/><stop stop-color="#F2AD1A" offset="1"/></linearGradient><path clip-path="url(#Y)" style="fill:url(#Z)" d="m56.087 55.549 13.776-23.015-28.571-17.101-13.776 23.015z"/></svg>
