<svg viewBox="0 0 128 128" xmlns="http://www.w3.org/2000/svg" xmlns:xlink="http://www.w3.org/1999/xlink"><defs><path d="M34.779.712c-11.937 0-16.265 1.243-20.629 3.577-4.363 2.334-7.789 5.758-10.123 10.122C1.694 18.775.451 23.104.451 35.04v52.147c0 11.937 1.243 16.266 3.576 20.629 2.334 4.364 5.76 7.789 10.123 10.123 4.364 2.334 8.692 3.577 20.629 3.577h52.147c11.936 0 16.265-1.243 20.629-3.577 4.365-2.334 7.789-5.759 10.123-10.123 2.334-4.363 3.576-8.692 3.576-20.629V35.04c0-11.936-1.242-16.265-3.576-20.629-2.334-4.364-5.758-7.788-10.123-10.122C103.191 1.955 98.862.712 86.926.712H34.779z" id="a"/><path d="M34.779.712c-11.937 0-16.265 1.243-20.629 3.577-4.363 2.334-7.789 5.758-10.123 10.122C1.694 18.775.451 23.104.451 35.04v52.147c0 11.937 1.243 16.266 3.576 20.629 2.334 4.364 5.76 7.789 10.123 10.123 4.364 2.334 8.692 3.577 20.629 3.577h52.147c11.936 0 16.265-1.243 20.629-3.577 4.365-2.334 7.789-5.759 10.123-10.123 2.334-4.363 3.576-8.692 3.576-20.629V35.04c0-11.936-1.242-16.265-3.576-20.629-2.334-4.364-5.758-7.788-10.123-10.122C103.191 1.955 98.862.712 86.926.712H34.779z" id="c"/><path d="M34.779.712c-11.937 0-16.265 1.243-20.629 3.577-4.363 2.334-7.789 5.758-10.123 10.122C1.694 18.775.451 23.104.451 35.04v52.147c0 11.937 1.243 16.266 3.576 20.629 2.334 4.364 5.76 7.789 10.123 10.123 4.364 2.334 8.692 3.577 20.629 3.577h52.147c11.936 0 16.265-1.243 20.629-3.577 4.365-2.334 7.789-5.759 10.123-10.123 2.334-4.363 3.576-8.692 3.576-20.629V35.04c0-11.936-1.242-16.265-3.576-20.629-2.334-4.364-5.758-7.788-10.123-10.122C103.191 1.955 98.862.712 86.926.712H34.779z" id="e"/><path d="M34.779.712c-11.937 0-16.265 1.243-20.629 3.577-4.363 2.334-7.789 5.758-10.123 10.122C1.694 18.775.451 23.104.451 35.04v52.147c0 11.937 1.243 16.266 3.576 20.629 2.334 4.364 5.76 7.789 10.123 10.123 4.364 2.334 8.692 3.577 20.629 3.577h52.147c11.936 0 16.265-1.243 20.629-3.577 4.365-2.334 7.789-5.759 10.123-10.123 2.334-4.363 3.576-8.692 3.576-20.629V35.04c0-11.936-1.242-16.265-3.576-20.629-2.334-4.364-5.758-7.788-10.123-10.122C103.191 1.955 98.862.712 86.926.712H34.779z" id="g"/></defs><g fill="none" fill-rule="evenodd"><path d="M36.657.669h54.39c12.45 0 16.966 1.296 21.516 3.73 4.553 2.435 8.124 6.007 10.559 10.558 2.434 4.552 3.73 9.067 3.73 21.516v54.391c0 12.45-1.296 16.965-3.73 21.515-2.435 4.553-6.006 8.126-10.559 10.56-4.55 2.434-9.066 3.73-21.516 3.73h-54.39c-12.45 0-16.964-1.296-21.516-3.73-4.55-2.434-8.123-6.007-10.558-10.56-2.434-4.55-3.73-9.065-3.73-21.515v-54.39c0-12.45 1.296-16.965 3.73-21.517C7.018 10.407 10.59 6.834 15.141 4.4 19.693 1.965 24.207.669 36.657.669" stroke="" fill=""/><path d="M37.779 3.267h52.147c11.937 0 16.266 1.243 20.629 3.577 4.365 2.334 7.789 5.759 10.123 10.122 2.334 4.364 3.577 8.693 3.577 20.629v52.148c0 11.936-1.243 16.265-3.577 20.628-2.334 4.365-5.758 7.79-10.123 10.124-4.363 2.334-8.692 3.576-20.63 3.576H37.78c-11.937 0-16.265-1.242-20.63-3.576-4.362-2.334-7.787-5.76-10.121-10.124-2.334-4.363-3.577-8.692-3.577-20.628V37.595c0-11.936 1.243-16.265 3.577-20.63 2.334-4.362 5.759-7.787 10.122-10.121 4.364-2.334 8.692-3.577 20.629-3.577" fill="#FFF"/><g transform="translate(3 2.555)"><mask id="b" fill="#fff"><use xlink:href="#a"/></mask><path fill="#EFAB1F" mask="url(#b)" d="M95.643 122h25.948V80.194L55.339 38.249l-2.265 1.299z"/></g><g transform="translate(3 2.555)"><mask id="d" fill="#fff"><use xlink:href="#c"/></mask><path fill="#FF357C" mask="url(#d)" d="M0 .445v84.666l62.144-20.24L28.882.444z"/></g><g transform="translate(3 2.555)"><mask id="f" fill="#fff"><use xlink:href="#e"/></mask><path fill="#103754" mask="url(#f)" d="M0 122h91.641L63.797 68.07 0 88.853z"/></g><g transform="translate(3 2.555)"><mask id="h" fill="#fff"><use xlink:href="#g"/></mask><path fill="#33ABB1" mask="url(#h)" d="m54.377 33.426.254.16 66.952 42.39.008-75.53H32.925l17.932 34.99z"/></g><path d="M53.105 102.02c5.27 0 9.56-4.288 9.56-9.56V80.69c0-.768.625-1.392 1.392-1.392h5.069c8.763 0 15.67-2.411 20.533-7.163 4.886-4.777 7.364-11.448 7.364-19.826s-2.478-15.05-7.364-19.827c-4.861-4.752-11.77-7.162-20.533-7.162H46.242c-5.271 0-9.56 4.288-9.56 9.559V92.46c0 5.27 4.289 9.559 9.56 9.559h6.863z" fill="#FFF"/></g></svg>
